<?xml version="1.0" standalone="no"?>
<!DOCTYPE svg PUBLIC "-//W3C//DTD SVG 20010904//EN"
 "http://www.w3.org/TR/2001/REC-SVG-20010904/DTD/svg10.dtd">
<svg version="1.0" xmlns="http://www.w3.org/2000/svg"
 width="1000.000000pt" height="1000.000000pt" viewBox="0 0 1000.000000 1000.000000"
 preserveAspectRatio="xMidYMid meet">
<metadata>
Created by potrace 1.14, written by Peter Selinger 2001-2017
</metadata>
<g transform="translate(0.000000,1000.000000) scale(0.100000,-0.100000)"
fill="#000000" stroke="none">
<path d="M1755 9073 c-39 -10 -115 -46 -115 -54 0 -5 -6 -9 -12 -9 -14 0 -78
-62 -78 -74 0 -4 -7 -14 -15 -23 -8 -8 -13 -19 -10 -24 4 -5 2 -9 -3 -9 -11 0
-33 -70 -26 -82 3 -4 1 -8 -4 -8 -5 0 -8 -314 -8 -746 1 -410 -2 -748 -6 -750
-4 -3 -93 -5 -198 -5 -112 0 -192 -4 -195 -10 -4 -5 -11 -7 -16 -3 -14 8 -110
-39 -152 -76 -21 -18 -49 -52 -63 -76 -54 -92 -55 -102 -55 -616 0 -505 2
-527 48 -607 26 -45 93 -122 93 -106 0 5 7 0 15 -11 8 -10 15 -15 15 -10 0 5
8 1 19 -8 10 -9 28 -18 40 -19 11 -1 21 -5 21 -10 0 -5 7 -7 15 -4 8 4 16 3
19 -1 3 -5 91 -8 196 -7 112 0 194 -4 198 -9 3 -5 6 -318 6 -696 l1 -686 -198
1 c-109 1 -200 -2 -203 -6 -3 -5 -11 -6 -19 -2 -8 3 -15 1 -15 -4 0 -5 -9 -9
-19 -10 -38 -3 -161 -95 -161 -120 0 -7 -4 -13 -8 -13 -10 0 -34 -53 -52 -112
-8 -26 -11 -186 -11 -515 0 -516 1 -525 55 -617 28 -48 104 -119 117 -110 5 3
9 1 9 -5 0 -13 86 -45 99 -36 6 3 11 1 11 -4 0 -8 65 -11 198 -11 l197 0 -1
-750 c0 -440 3 -750 8 -750 5 0 6 -5 3 -10 -8 -12 16 -80 28 -80 4 0 5 -4 2
-10 -3 -5 -1 -10 5 -10 6 0 9 -4 5 -9 -3 -6 3 -14 12 -20 10 -6 15 -11 10 -11
-13 0 56 -70 70 -70 7 0 13 -4 13 -9 0 -5 24 -19 53 -32 l52 -24 590 0 590 0
56 26 c79 37 133 90 171 167 l33 67 3 762 2 763 110 0 110 0 2 -763 3 -762 33
-67 c38 -77 92 -130 171 -167 l56 -26 590 0 590 0 50 25 c28 13 52 28 53 32 2
4 9 8 16 8 13 0 67 55 65 67 0 3 6 10 15 15 9 5 14 13 11 19 -4 5 -3 9 2 9 12
0 46 88 38 100 -3 5 -2 10 3 10 4 0 8 328 8 746 -1 410 2 748 5 750 3 2 90 4
193 4 191 1 267 13 299 45 8 8 17 12 19 10 9 -10 89 68 114 111 54 91 54 101
54 619 0 502 -1 521 -45 605 -19 37 -88 110 -104 110 -6 0 -11 5 -11 11 0 5
-4 7 -10 4 -5 -3 -10 -3 -10 2 0 11 -51 34 -61 27 -5 -3 -9 -1 -9 4 0 12 -1
12 -220 15 -108 2 -200 6 -205 9 -12 7 -13 1364 -1 1375 4 4 94 8 199 9 198 1
219 4 259 25 13 7 26 12 31 11 4 -1 7 3 7 8 0 5 4 9 9 7 13 -3 101 73 101 89
0 8 3 14 8 14 4 0 18 24 32 53 24 50 25 60 30 316 3 145 3 380 0 520 l-5 257
-33 66 c-32 66 -115 154 -133 142 -5 -3 -9 -1 -9 4 0 5 -8 12 -17 16 -100 34
-113 36 -295 36 -104 0 -188 3 -189 8 0 4 -2 349 -2 766 -2 578 -5 760 -14
763 -7 3 -9 11 -6 19 3 8 0 14 -6 14 -6 0 -11 3 -10 8 2 15 -14 52 -22 52 -5
0 -9 5 -9 11 0 20 -82 89 -139 117 l-56 27 -590 0 -590 0 -67 -33 c-77 -38
-130 -92 -167 -171 l-26 -56 -3 -762 -2 -763 -110 0 -110 0 -2 763 -3 762 -26
56 c-37 79 -90 133 -167 171 l-67 33 -575 1 c-316 1 -584 0 -595 -3z m1653
-4038 c1 -451 -1 -691 -8 -695 -8 -5 -124 -6 -192 -1 -17 1 -18 41 -18 689 0
379 2 691 4 693 2 2 51 4 108 4 l103 -1 3 -689z"/>
<path d="M7243 8927 c-2 -4 -9 -5 -14 -2 -5 4 -15 3 -21 -2 -7 -4 -22 -9 -33
-10 -11 -2 -22 -8 -23 -13 -2 -6 -8 -8 -13 -4 -5 3 -9 0 -9 -6 0 -6 -4 -9 -9
-5 -6 3 -14 -3 -20 -12 -6 -10 -11 -14 -11 -10 0 5 -15 -7 -32 -26 -53 -55
-67 -75 -74 -102 -3 -14 -9 -25 -13 -25 -7 0 -11 -15 -12 -52 0 -10 -3 -18 -7
-18 -7 0 -7 -4152 0 -4180 2 -8 7 -21 11 -27 5 -7 6 -17 2 -22 -3 -5 2 -17 11
-26 9 -9 14 -19 10 -22 -3 -3 3 -13 15 -21 11 -8 18 -20 15 -28 -3 -8 1 -14 8
-14 7 0 23 -13 36 -30 12 -16 27 -27 31 -24 5 3 9 0 9 -5 0 -6 7 -11 15 -11 8
0 15 -5 15 -11 0 -5 5 -7 10 -4 6 3 10 1 10 -5 0 -6 5 -8 10 -5 6 3 10 1 10
-4 0 -6 3 -10 8 -10 4 1 9 0 12 -1 23 -9 124 -11 613 -13 306 -1 557 1 557 5
0 4 9 5 20 3 11 -2 20 1 20 6 0 6 4 8 9 4 5 -3 12 -1 16 5 4 6 11 8 16 5 5 -4
9 -2 9 3 0 6 11 13 25 16 14 4 25 11 25 17 0 6 5 7 10 4 6 -3 10 -1 10 5 0 6
5 8 10 5 6 -4 9 -3 8 2 -2 5 10 21 26 36 16 15 25 27 20 27 -5 0 -2 5 6 10 8
5 15 13 15 17 1 4 9 23 18 41 10 17 14 32 10 32 -4 0 -2 5 4 11 6 6 9 18 6 25
-3 8 -1 14 3 14 5 0 9 934 9 2085 0 1147 -3 2085 -7 2085 -4 0 -5 9 -3 20 2
11 1 20 -3 20 -4 0 -9 10 -9 22 -1 13 -7 24 -13 26 -5 2 -10 12 -10 22 0 10
-7 20 -15 24 -9 3 -12 12 -8 23 3 10 3 15 -2 11 -4 -4 -22 8 -40 27 -17 19
-37 35 -43 35 -7 0 -12 5 -12 11 0 5 -5 7 -10 4 -6 -3 -13 1 -16 9 -3 9 -10
13 -16 10 -5 -3 -17 1 -26 9 -9 8 -24 15 -32 16 -56 6 -1143 4 -1147 -2z"/>
<path d="M7525 3811 c-244 -52 -408 -135 -550 -277 -167 -167 -262 -364 -305
-629 -11 -66 -16 -378 -6 -393 2 -4 7 -29 10 -57 12 -89 60 -245 102 -328 133
-263 382 -465 659 -533 6 -1 39 -11 75 -21 54 -15 102 -18 290 -18 213 0 231
2 325 27 231 63 367 139 517 290 147 148 246 357 287 601 13 77 17 327 6 402
-56 387 -244 674 -540 827 -81 41 -207 86 -290 102 -16 4 -41 9 -55 13 -14 3
-119 7 -235 8 -167 2 -226 -1 -290 -14z"/>
</g>
</svg>
